<?xml version="1.0" standalone="no"?>
<!DOCTYPE svg PUBLIC "-//W3C//DTD SVG 20010904//EN"
 "http://www.w3.org/TR/2001/REC-SVG-20010904/DTD/svg10.dtd">
<svg version="1.0" xmlns="http://www.w3.org/2000/svg"
 width="174.000000pt" height="174.000000pt" viewBox="0 0 174.000000 174.000000"
 preserveAspectRatio="xMidYMid meet">
<metadata>
Created by potrace 1.11, written by Peter Selinger 2001-2013
</metadata>
<g transform="translate(0.000000,174.000000) scale(0.100000,-0.100000)"
fill="#000000" stroke="none">
<path d="M790 1622 c-53 -7 -88 -24 -117 -55 -23 -24 -82 -162 -249 -582 -121
-306 -218 -563 -217 -580 0 -16 17 -65 36 -108 29 -62 43 -80 69 -92 42 -18
689 -88 740 -80 56 10 113 56 132 107 9 24 92 288 185 586 148 476 167 548
160 580 -5 21 -9 56 -9 80 0 102 -19 110 -338 127 -141 8 -282 16 -312 18 -30
2 -66 1 -80 -1z m310 -142 c179 -11 328 -22 332 -23 5 -2 -336 -1074 -345
-1083 -3 -3 -776 74 -788 79 -4 1 82 229 190 507 109 278 200 513 204 523 8
22 7 22 407 -3z"/>
</g>
</svg>
